
<svg width="37" height="28" viewBox="0 0 37 28" fill="none" xmlns="http://www.w3.org/2000/svg">
<path fill-rule="evenodd" clip-rule="evenodd" d="M5.36468 3.68579C4.55093 3.68579 3.89123 4.34547 3.89123 5.15924V22.8406C3.89123 23.6544 4.55093 24.3141 5.36468 24.3141H31.8868C32.7005 24.3141 33.3602 23.6544 33.3602 22.8406V5.15924C33.3602 4.34548 32.7005 3.68579 31.8868 3.68579H5.36468ZM0.944336 5.15924C0.944336 2.71795 2.92338 0.738892 5.36468 0.738892H31.8868C34.3281 0.738892 36.3071 2.71795 36.3071 5.15924V22.8406C36.3071 25.282 34.3281 27.261 31.8868 27.261H5.36468C2.9234 27.261 0.944336 25.282 0.944336 22.8406V5.15924ZM9.78503 11.7898C9.78503 10.5691 10.7746 9.57958 11.9952 9.57958C13.2158 9.57958 14.2054 10.5691 14.2054 11.7898C14.2054 13.0104 13.2158 13.9999 11.9952 13.9999C10.7746 13.9999 9.78503 13.0104 9.78503 11.7898ZM15.9376 15.1146C16.6955 14.2168 17.1523 13.0566 17.1523 11.7898C17.1523 8.94158 14.8434 6.63269 11.9952 6.63269C9.14702 6.63269 6.83813 8.94158 6.83813 11.7898C6.83813 13.0566 7.29493 14.2168 8.05281 15.1146C6.37009 16.2092 5.36468 17.9884 5.36468 19.8937C5.36468 20.7075 6.02437 21.3672 6.83813 21.3672C7.65189 21.3672 8.31158 20.7075 8.31158 19.8937C8.31158 18.589 9.49104 16.9468 11.9952 16.9468C14.4994 16.9468 15.6788 18.589 15.6788 19.8937C15.6788 20.7075 16.3385 21.3672 17.1523 21.3672C17.9661 21.3672 18.6257 20.7075 18.6257 19.8937C18.6257 17.9884 17.6204 16.2092 15.9376 15.1146ZM20.0992 8.10613C19.2854 8.10613 18.6257 8.76583 18.6257 9.57958C18.6257 10.3933 19.2854 11.053 20.0992 11.053H28.9399C29.7536 11.053 30.4133 10.3933 30.4133 9.57958C30.4133 8.76583 29.7536 8.10613 28.9399 8.10613H20.0992ZM21.5726 13.9999C20.7588 13.9999 20.0992 14.6596 20.0992 15.4734C20.0992 16.2872 20.7588 16.9468 21.5726 16.9468H27.4664C28.2802 16.9468 28.9399 16.2872 28.9399 15.4734C28.9399 14.6596 28.2802 13.9999 27.4664 13.9999H21.5726Z" fill="#C4AB73"/>
</svg>
