<svg width="20" height="17" viewBox="0 0 20 17" fill="none" xmlns="http://www.w3.org/2000/svg">
<path fill-rule="evenodd" clip-rule="evenodd" d="M7.46084 8.96585C7.46084 10.4107 8.63206 11.582 10.0769 11.582C11.5218 11.582 12.6931 10.4107 12.6931 8.96585C12.6931 7.52108 11.5218 6.34978 10.0769 6.34978C8.63206 6.34978 7.46084 7.52108 7.46084 8.96585ZM14.0391 8.96585C14.0391 6.77747 12.2652 5.00361 10.0769 5.00361C7.88861 5.00361 6.11467 6.77747 6.11467 8.96585C6.11467 11.1541 7.88861 12.9281 10.0769 12.9281C12.2652 12.9281 14.0391 11.1541 14.0391 8.96585ZM1.82227 6.33767H0.501551V13.3156C0.501551 14.9532 1.82905 16.2808 3.46668 16.2808H16.0976V14.96H3.70372C2.66463 14.96 1.82227 14.1177 1.82227 13.0785V6.33767ZM13.4154 3.26807C13.5401 3.40296 13.6912 3.51069 13.8594 3.58455C14.0276 3.6584 14.2092 3.69678 14.3929 3.69729L18.3316 3.70826V16.2808H19.6523V3.83795C19.6523 3.03689 19.0029 2.38754 18.2018 2.38754H14.3999L12.7398 0.559046C12.6453 0.455005 12.5301 0.371922 12.4016 0.315159C12.273 0.258395 12.134 0.229213 11.9935 0.229494L7.94667 0.236961C7.80831 0.237229 7.67149 0.266046 7.54477 0.32161C7.41805 0.377175 7.30416 0.458291 7.21023 0.559884L5.52072 2.38754H0.501551V3.70826L5.53276 3.69264C5.71633 3.69205 5.89781 3.65362 6.06588 3.57978C6.23395 3.50593 6.385 3.39824 6.5096 3.26343L8.09396 1.54938H11.8267L13.4154 3.26807Z" fill="white"/>
</svg>
