<svg width="27" height="26" viewBox="0 0 27 26" fill="none" xmlns="http://www.w3.org/2000/svg">
<path d="M25.8171 6.85238C24.7118 5.63002 22.8652 5.01884 20.1864 5.01884H19.8743V4.96682C19.8743 2.78218 19.8743 0.0773926 14.9849 0.0773926H13.0083C8.1189 0.0773926 8.11891 2.79519 8.11891 4.96682V5.03184H7.80681C5.11503 5.03184 3.28149 5.64302 2.17617 6.86538C0.888791 8.2958 0.927802 10.2204 1.05784 11.5337L1.07084 11.6248L1.17834 12.7535C1.1926 12.9032 1.2733 13.0385 1.39907 13.1211C1.69978 13.3185 2.27152 13.689 2.60529 13.8744C2.78735 13.9915 2.9824 14.0955 3.17746 14.1995C5.40111 15.4219 7.84583 16.2411 10.3296 16.6442C10.4466 17.8666 10.9797 19.297 13.8276 19.297C16.6754 19.297 17.2346 17.8796 17.3256 16.6182C19.9784 16.1891 22.5401 15.2658 24.8548 13.9134C24.9328 13.8744 24.9848 13.8354 25.0499 13.7964C25.5846 13.4942 26.14 13.1192 26.642 12.7551C26.7548 12.6733 26.8271 12.5473 26.8425 12.4088L26.8704 12.1579L26.9354 11.5467C26.9484 11.4687 26.9484 11.4037 26.9614 11.3127C27.0654 9.9993 27.0394 8.20477 25.8171 6.85238ZM15.414 15.76C15.414 17.1384 15.414 17.3464 13.8146 17.3464C12.2151 17.3464 12.2151 17.0994 12.2151 15.773V14.1345H15.414V15.76ZM9.97845 5.01884V4.96682C9.97845 2.75618 9.97845 1.93694 13.0083 1.93694H14.9849C18.0148 1.93694 18.0148 2.76918 18.0148 4.96682V5.03184H9.97845V5.01884Z" fill="white"/>
<path d="M25.7798 14.2183C26.1329 14.0489 26.5385 14.3296 26.5031 14.7195L26.012 20.1293C25.7389 22.7301 24.6726 25.3828 18.9509 25.3828H9.04204C3.32037 25.3828 2.25405 22.7301 1.98097 20.1423L1.5141 15.0067C1.47906 14.6213 1.87646 14.3414 2.22862 14.5019C3.65706 15.1533 6.67682 16.4841 8.45288 16.9332C8.61755 16.9749 8.75137 17.0925 8.82049 17.2477C9.59397 18.9837 11.3195 19.9082 13.8274 19.9082C16.3105 19.9082 18.0587 18.9481 18.8342 17.2089C18.9035 17.0536 19.0378 16.9359 19.2025 16.8941C21.0864 16.4163 24.291 14.9324 25.7798 14.2183Z" fill="white"/>
</svg>
