
<svg width="17" height="19" viewBox="0 0 17 19" fill="none" xmlns="http://www.w3.org/2000/svg">
<path d="M8.7026 14.5728C8.5954 14.3372 8.3733 14.1653 8.1045 14.1347C7.8769 14.1087 7.6541 14.06 7.4422 13.9897C7.3472 13.9577 7.258 13.9228 7.1755 13.8855L7.3126 13.5116C7.4095 13.5548 7.5092 13.5944 7.6114 13.6301L7.6156 13.6316L7.62 13.633C7.9478 13.7414 8.2704 13.7963 8.5786 13.7963C8.8881 13.7963 9.1125 13.7548 9.2848 13.6659L9.2951 13.6606L9.3052 13.6547C9.5663 13.5049 9.7161 13.2474 9.7161 12.9481C9.7161 12.6159 9.5369 12.3402 9.2244 12.1912C9.0672 12.1148 8.8439 12.0417 8.5223 11.9618C8.1924 11.8784 7.9153 11.7899 7.7003 11.6992C7.5433 11.6281 7.407 11.5147 7.2841 11.3525C7.1784 11.2078 7.1249 10.9901 7.1249 10.7053C7.1249 10.3617 7.2216 10.0781 7.4207 9.83823C7.598 9.62813 7.8496 9.48534 8.1874 9.40524C8.438 9.34594 8.6334 9.16704 8.7213 8.93604C8.8206 9.17014 9.032 9.34424 9.295 9.38624C9.5147 9.42124 9.7164 9.47694 9.8978 9.55254L9.7716 9.91884C9.4291 9.78144 9.0921 9.71194 8.7661 9.71194C7.6836 9.71194 7.6287 10.4588 7.6287 10.6085C7.6287 10.9331 7.804 11.2052 8.1096 11.3552L8.1182 11.3595L8.1269 11.3634C8.2812 11.4323 8.5003 11.4987 8.8164 11.5723C9.1432 11.6462 9.4158 11.7308 9.63 11.8246L9.6344 11.8266L9.6389 11.8284C9.7979 11.8946 9.9343 12.0051 10.0558 12.1663L10.0578 12.1688L10.0597 12.1714C10.166 12.3088 10.22 12.5212 10.22 12.8029C10.22 13.128 10.1258 13.4032 9.9321 13.6442C9.7641 13.8533 9.5296 13.998 9.2148 14.0866C8.9719 14.1551 8.7834 14.3409 8.7026 14.5728Z" fill="#C4AB73"/>
<path d="M8.9767 15.5457H8.4551C8.3384 15.5457 8.2438 15.4488 8.2438 15.3291V14.8941C8.2438 14.7797 8.157 14.6857 8.0461 14.673C7.782 14.643 7.5265 14.587 7.2797 14.5051C7.0398 14.4243 6.832 14.3285 6.6563 14.2175C6.5755 14.1664 6.5461 14.0629 6.5795 13.9719L6.9373 12.9962C6.9855 12.8649 7.141 12.8147 7.2607 12.8826C7.4223 12.9741 7.5961 13.0524 7.7818 13.1174C8.0586 13.2089 8.3242 13.2546 8.5786 13.2546C8.7973 13.2546 8.9536 13.2304 9.0473 13.182C9.141 13.1282 9.1879 13.0502 9.1879 12.948C9.1879 12.8297 9.1254 12.741 9.0004 12.6818C8.88 12.6227 8.679 12.5581 8.3979 12.4882C8.0363 12.3968 7.735 12.3 7.4939 12.1978C7.2529 12.0902 7.0431 11.9181 6.8645 11.6815C6.6859 11.4395 6.5967 11.114 6.5967 10.7053C6.5967 10.232 6.7373 9.826 7.0185 9.4871C7.272 9.1866 7.6219 8.9833 8.0684 8.8775C8.169 8.8537 8.2438 8.7642 8.2438 8.6584V8.1791C8.2438 8.0594 8.3384 7.9624 8.4551 7.9624H8.9767C9.0934 7.9624 9.1879 8.0594 9.1879 8.1791V8.631C9.1879 8.7418 9.2694 8.8339 9.376 8.851C9.7672 8.9132 10.1109 9.0312 10.4071 9.2049C10.4912 9.2542 10.5246 9.359 10.4923 9.4526L10.1574 10.4243C10.1131 10.5531 9.9652 10.6076 9.8463 10.546C9.4691 10.351 9.1091 10.2535 8.7661 10.2535C8.3598 10.2535 8.1567 10.3718 8.1567 10.6084C8.1567 10.7214 8.2171 10.8075 8.3375 10.8667C8.4581 10.9204 8.6567 10.9796 8.9335 11.0442C9.2905 11.1249 9.5919 11.2189 9.8374 11.3265C10.0829 11.4286 10.2949 11.5981 10.4735 11.8348C10.6565 12.0714 10.7481 12.3941 10.7481 12.8028C10.7481 13.2546 10.6119 13.6499 10.3395 13.9888C10.1024 14.2841 9.774 14.4908 9.3547 14.609C9.2583 14.6362 9.1879 14.7237 9.1879 14.8262V15.3291C9.1879 15.4488 9.0934 15.5457 8.9767 15.5457Z" fill="#C4AB73"/>
<path fill-rule="evenodd" clip-rule="evenodd" d="M6.3917 1.4624H10.9653C12.1367 1.4624 11.4934 3.26507 11.0191 4.36465L10.4794 5.62565L10.4065 5.79574C10.9177 5.77029 11.4233 5.91549 11.8472 6.2096C13.4331 7.6979 14.7202 9.4897 15.6361 11.4843C15.9929 12.2219 16.1345 13.0495 16.0437 13.8677C15.9347 15.953 14.3036 17.6147 12.2697 17.7124H5.08725C3.05286 17.6176 1.41926 15.9576 1.30798 13.872C1.21719 13.0539 1.35877 12.2262 1.7157 11.4887C2.63262 9.4921 3.9215 7.6986 5.50975 6.2096C5.93373 5.91549 6.4392 5.77029 6.9504 5.79574L6.8659 5.59965L6.3378 4.36465C5.8657 3.26507 5.21927 1.4624 6.3917 1.4624Z" stroke="#C4AB73" stroke-width="1.625" stroke-linecap="round" stroke-linejoin="round"/>
<path d="M10.4065 6.6084C10.8552 6.6084 11.219 6.2446 11.219 5.79589C11.219 5.34716 10.8552 4.98339 10.4065 4.98339V6.6084ZM6.9505 4.98339C6.5018 4.98339 6.138 5.34716 6.138 5.79589C6.138 6.2446 6.5018 6.6084 6.9505 6.6084V4.98339ZM13.3091 5.41659C13.6979 5.1926 13.8316 4.69582 13.6076 4.30699C13.3835 3.91816 12.8868 3.78453 12.498 4.00852L13.3091 5.41659ZM10.4794 5.6258L10.6362 6.423L10.6386 6.4226L10.4794 5.6258ZM6.866 5.5998L7.0342 4.80486L7.0268 4.80337L6.866 5.5998ZM4.84653 4.00142C4.45378 3.78438 3.95944 3.9268 3.7424 4.31954C3.52534 4.71229 3.66776 5.20663 4.06052 5.42369L4.84653 4.00142ZM10.4065 4.98339H6.9505V6.6084H10.4065V4.98339ZM12.498 4.00852C11.8188 4.39977 11.0836 4.67662 10.3203 4.82903L10.6386 6.4226C11.576 6.2354 12.4776 5.89559 13.3091 5.41659L12.498 4.00852ZM10.3227 4.82857C9.2357 5.04233 8.1183 5.03425 7.0342 4.80486L6.6978 6.3947C7.996 6.6694 9.3343 6.679 10.6362 6.423L10.3227 4.82857ZM7.0268 4.80337C6.2656 4.64968 5.5306 4.37948 4.84653 4.00142L4.06052 5.42369C4.88906 5.88158 5.78056 6.2095 6.7052 6.3962L7.0268 4.80337Z" fill="#C4AB73"/>
</svg>
