<svg width="17" height="18" viewBox="0 0 17 18" fill="none" xmlns="http://www.w3.org/2000/svg">
<path d="M13.7308 7.83625C12.8154 7.47663 12.6847 7.11701 12.6847 6.7574C12.6847 6.39778 12.9462 6.03817 13.2731 5.77663C13.8289 5.31894 14.1231 4.6324 14.1231 3.88048C14.1231 2.44201 13.175 1.19971 11.5077 1.19971C9.9712 1.19971 9.05582 2.24586 8.92505 3.52086C8.92505 3.65163 8.99043 3.74971 9.08851 3.81509C10.3308 4.59971 11.0827 5.97278 11.0827 7.64009C11.0827 8.8824 10.5924 9.99394 9.70966 10.7786C9.64428 10.8439 9.64428 10.9747 9.70966 11.0401C9.93851 11.2036 10.4616 11.4324 10.7885 11.5959C10.8866 11.6286 10.952 11.6612 11.05 11.6612H15.0058C15.7577 11.6612 16.3462 11.0401 16.3462 10.3536V10.1574C16.3462 9.01317 15.1039 8.39201 13.7308 7.83625Z" fill="#C4AB73"/>
<path d="M9.35002 12.3803C8.23848 11.9226 8.07502 11.5303 8.07502 11.1053C8.07502 10.6803 8.40195 10.2553 8.76156 9.92839C9.41541 9.37262 9.77502 8.588 9.77502 7.67262C9.77502 5.97262 8.66348 4.50146 6.63656 4.50146C4.64233 4.50146 3.4981 5.97262 3.4981 7.67262C3.4981 8.588 3.85772 9.37262 4.51156 9.92839C4.87118 10.2553 5.1981 10.6803 5.1981 11.1053C5.1981 11.5303 5.03464 11.9553 3.89041 12.3803C2.25579 13.0342 0.65387 13.7861 0.65387 15.1592V15.2572V15.5842C0.65387 16.3034 1.24233 16.8918 1.99425 16.8918H11.05C11.8019 16.8918 12.4231 16.3034 12.4231 15.5842V15.2572V15.1265C12.4231 13.7861 10.9846 13.0342 9.35002 12.3803Z" fill="#C4AB73"/>
</svg>
