<svg width="27" height="28" viewBox="0 0 27 28" fill="none" xmlns="http://www.w3.org/2000/svg">
<path d="M23.2314 2.96382e-05C22.9536 -0.00144877 22.6782 0.0523958 22.4215 0.158424C22.1647 0.264451 21.9316 0.420541 21.7357 0.617591C21.5399 0.81464 21.3852 1.04871 21.2808 1.30614C21.1763 1.56358 21.1242 1.83923 21.1274 2.11703L21.1434 3.73403L21.1584 5.34903C21.1594 5.48104 21.2125 5.60729 21.3062 5.70036C21.3998 5.79342 21.5264 5.84577 21.6584 5.84603L23.2734 5.85703L24.8894 5.86703C25.167 5.86862 25.4422 5.8151 25.699 5.70956C25.9557 5.60403 26.189 5.44858 26.3853 5.25222C26.5815 5.05587 26.7369 4.82251 26.8423 4.56568C26.9477 4.30885 27.0011 4.03365 26.9994 3.75603C26.9955 3.27086 26.8058 2.80564 26.4694 2.45603L26.4634 2.44903C26.1267 2.10019 25.6898 1.86466 25.2134 1.77503C25.0184 0.80003 24.2584 0.00702964 23.2314 2.96382e-05ZM23.2194 0.99203L23.2234 1.00403C23.8504 1.00403 24.3534 1.50703 24.3594 2.13403C24.3602 2.26577 24.4129 2.39188 24.5062 2.48494C24.5994 2.57801 24.7256 2.63051 24.8574 2.63103C25.1714 2.63103 25.4514 2.75703 25.6574 2.96103V2.95503C25.8614 3.15903 25.9894 3.44003 25.9924 3.75403C25.9969 3.89952 25.9718 4.04441 25.9185 4.17989C25.8653 4.31537 25.7851 4.43863 25.6828 4.54216C25.5805 4.64569 25.4582 4.72735 25.3233 4.78216C25.1885 4.83698 25.0439 4.86381 24.8984 4.86103L23.2794 4.85103L22.1544 4.84103L22.1434 3.71703L22.1274 2.09903C22.1227 1.95367 22.1477 1.80889 22.2008 1.67348C22.2538 1.53807 22.3338 1.41485 22.436 1.31132C22.5381 1.20779 22.6602 1.12609 22.7949 1.07121C22.9295 1.01632 23.074 0.989381 23.2194 0.99203ZM3.94738 1.00003C3.43438 1.00503 2.98738 1.20803 2.64738 1.53003L2.64338 1.52703C2.29439 1.86443 2.05887 2.30193 1.96938 2.77903C0.993379 2.97403 0.200379 3.73403 0.193379 4.76203C0.192174 5.03973 0.246164 5.3149 0.352213 5.57155C0.458262 5.8282 0.614256 6.06123 0.811131 6.25708C1.00801 6.45293 1.24184 6.60771 1.49904 6.71242C1.75624 6.81713 2.03169 6.86968 2.30938 6.86703L3.92638 6.85103L5.54138 6.83603C5.67305 6.83473 5.79897 6.78184 5.89208 6.68873C5.98519 6.59562 6.03808 6.4697 6.03938 6.33803L6.04938 4.72203L6.06138 3.10703C6.06298 2.8293 6.00934 2.55402 5.90359 2.2972C5.79783 2.04039 5.64206 1.80716 5.44534 1.6111C5.24863 1.41504 5.01489 1.26004 4.75773 1.15514C4.50056 1.05023 4.22511 0.997506 3.94738 1.00003ZM3.94738 1.99803C4.09321 1.99336 4.23845 2.0185 4.37422 2.07192C4.50999 2.12535 4.63343 2.20592 4.73697 2.30871C4.84051 2.41151 4.92198 2.53436 4.97639 2.66973C5.03079 2.80511 5.05699 2.95017 5.05338 3.09603L5.04338 4.71503L5.03338 5.84003L3.90638 5.85103L2.28938 5.86703C2.14394 5.87157 1.99911 5.84637 1.86375 5.79298C1.7284 5.73958 1.60536 5.65912 1.50219 5.55651C1.39902 5.4539 1.31789 5.33131 1.26376 5.19625C1.20962 5.06118 1.18363 4.91649 1.18738 4.77103L1.20038 4.77303V4.77103C1.20038 4.14403 1.70538 3.64203 2.33538 3.63803C2.46695 3.63698 2.5928 3.58411 2.68565 3.49089C2.7785 3.39766 2.83086 3.2716 2.83138 3.14003C2.83138 2.82703 2.95738 2.54703 3.16138 2.34203L3.15138 2.33603C3.35538 2.13103 3.63438 2.00203 3.94738 1.99803ZM11.6294 2.86703C10.8024 2.86703 10.0514 3.20303 9.50838 3.74603C8.96246 4.2868 8.64696 5.01782 8.62795 5.786C8.60893 6.55418 8.88789 7.29991 9.40638 7.86703H5.12738C4.57738 7.86703 4.07738 8.09203 3.71538 8.45503C3.52926 8.6401 3.38151 8.8601 3.28061 9.10241C3.17971 9.34471 3.12763 9.60455 3.12738 9.86703V13.867C3.12738 14.967 4.02738 15.867 5.12738 15.867V25.865C5.12738 26.965 6.02738 27.865 7.12738 27.865H12.6064C12.6134 27.8658 12.6204 27.8665 12.6274 27.867H21.1274C22.2274 27.867 23.1274 26.967 23.1274 25.867L23.1294 15.869C24.2294 15.869 25.1294 14.969 25.1294 13.869L25.1274 9.86703C25.1274 8.76703 24.2284 7.86703 23.1294 7.86703H18.8464C19.3264 7.33503 19.6274 6.63803 19.6274 5.86703C19.6274 4.21403 18.2804 2.86703 16.6274 2.86703C16.1315 2.86665 15.6434 2.98967 15.207 3.22499C14.7705 3.46032 14.3995 3.80055 14.1274 4.21503C13.8548 3.8014 13.484 3.46178 13.0481 3.22654C12.6122 2.9913 12.1247 2.86778 11.6294 2.86703ZM11.6294 3.86703C12.7464 3.86703 13.6274 4.75003 13.6274 5.86703V7.86703H11.6274C10.5104 7.86703 9.62738 6.98603 9.62738 5.86903C9.62738 5.31103 9.84938 4.80703 10.2094 4.44703C10.5694 4.08703 11.0714 3.86703 11.6294 3.86703ZM16.6274 3.86703C17.7444 3.86703 18.6274 4.75003 18.6274 5.86703C18.6274 6.98403 17.7444 7.86703 16.6274 7.86703H14.6274V5.86703C14.6274 5.30903 14.8494 4.80903 15.2094 4.44903C15.5694 4.08903 16.0694 3.86703 16.6274 3.86703ZM5.12738 8.86703H12.1274V14.867H7.72138C7.65928 14.8551 7.59548 14.8551 7.53338 14.867H5.72138C5.65928 14.8551 5.59548 14.8551 5.53338 14.867H5.12738C4.56438 14.867 4.12738 14.43 4.12738 13.867V9.86703C4.12738 9.30403 4.56438 8.86703 5.12738 8.86703ZM13.1274 8.86703H15.1274V15.273C15.1139 15.339 15.1139 15.407 15.1274 15.473V26.867L13.1274 26.865V15.471C13.142 15.4025 13.142 15.3316 13.1274 15.263V8.86703ZM16.1274 8.86703H23.1274C23.6904 8.86703 24.1274 9.30403 24.1274 9.86703L24.1294 13.867C24.1294 14.43 23.6924 14.867 23.1294 14.867H22.6644C22.6391 14.8651 22.6137 14.8651 22.5884 14.867L16.1274 14.869V8.86703ZM6.09238 9.87103C5.86738 9.87103 5.65438 9.93003 5.47238 10.061C5.36949 10.1337 5.28505 10.2294 5.22584 10.3405C5.16662 10.4517 5.13427 10.5751 5.13138 10.701V12.18C5.13138 12.3126 5.18406 12.4398 5.27783 12.5336C5.37159 12.6274 5.49877 12.68 5.63138 12.68C5.76399 12.68 5.89116 12.6274 5.98493 12.5336C6.0787 12.4398 6.13138 12.3126 6.13138 12.18V10.87H7.58638C7.71899 10.87 7.84616 10.8174 7.93993 10.7236C8.0337 10.6298 8.08638 10.5026 8.08638 10.37C8.08638 10.2374 8.0337 10.1102 7.93993 10.0165C7.84616 9.92271 7.71899 9.87003 7.58638 9.87003L6.09238 9.87103ZM6.12738 15.867H7.12738V22.361C7.12738 22.4936 7.18006 22.6208 7.27383 22.7146C7.36759 22.8084 7.49477 22.861 7.62738 22.861C7.75999 22.861 7.88716 22.8084 7.98093 22.7146C8.0747 22.6208 8.12738 22.4936 8.12738 22.361V15.867H12.1274L12.1294 26.865H7.12738C6.56438 26.865 6.12738 26.428 6.12738 25.865V15.867ZM16.1274 15.869H22.1274V25.867C22.1274 26.43 21.6904 26.867 21.1274 26.867H16.1274V15.869ZM7.62138 23.851C7.55374 23.8518 7.48696 23.8663 7.42508 23.8936C7.3632 23.921 7.30751 23.9606 7.26138 24.01C7.17278 24.1052 7.12472 24.2311 7.12738 24.361V25.361C7.12738 25.4936 7.18006 25.6208 7.27383 25.7146C7.36759 25.8084 7.49477 25.861 7.62738 25.861C7.75999 25.861 7.88716 25.8084 7.98093 25.7146C8.0747 25.6208 8.12738 25.4936 8.12738 25.361V24.361C8.12872 24.294 8.11659 24.2274 8.09168 24.1652C8.06678 24.103 8.02962 24.0464 7.98242 23.9988C7.93522 23.9513 7.87893 23.9137 7.81691 23.8883C7.75489 23.8629 7.68839 23.8502 7.62138 23.851Z" fill="white"/>
</svg>
