<svg width="20" height="18" viewBox="0 0 20 18" fill="none" xmlns="http://www.w3.org/2000/svg">
<g id="Group 205">
<path id="Vector" d="M19.3 8.22998H15.82C14.84 8.22998 13.97 8.76998 13.53 9.64998L12.69 11.31C12.49 11.71 12.09 11.96 11.65 11.96H8.37C8.06 11.96 7.62 11.89 7.33 11.31L6.49 9.65998C6.05 8.78998 5.17 8.23998 4.2 8.23998H0.7C0.31 8.23998 0 8.54998 0 8.93998V12.2C0 15.83 2.18 18 5.82 18H14.2C17.63 18 19.74 16.12 20 12.78V8.92998C20 8.54998 19.69 8.22998 19.3 8.22998Z" fill="white"/>
<path id="Vector_2" d="M20 5.81V6.85C19.78 6.77 19.54 6.73 19.3 6.73H15.82C14.27 6.73 12.88 7.59 12.19 8.97L11.44 10.45H8.58L7.83 8.98C7.14 7.59 5.75 6.73 4.2 6.73H0.7C0.46 6.73 0.22 6.77 0 6.85V5.81C0 2.17 2.17 0 5.81 0H9.25V3.19L8.53 2.47C8.24 2.18 7.76 2.18 7.47 2.47C7.18 2.76 7.18 3.24 7.47 3.53L9.47 5.53C9.48 5.54 9.49 5.54 9.49 5.55C9.56 5.61 9.63 5.66 9.71 5.69C9.81 5.73 9.9 5.75 10 5.75C10.1 5.75 10.19 5.73 10.28 5.69C10.37 5.66 10.46 5.6 10.53 5.53L12.53 3.53C12.82 3.24 12.82 2.76 12.53 2.47C12.24 2.18 11.76 2.18 11.47 2.47L10.75 3.19V0H14.19C17.83 0 20 2.17 20 5.81Z" fill="white"/>
</g>
</svg>
